<svg viewBox="0 0 512 512" xmlns="http://www.w3.org/2000/svg"><path d="m 255.04293,510.0304 c 136.967,0 248,-111.033 248,-248 0,-136.967 -111.033,-247.999998 -248,-247.999998 -136.967,0 -248.0000019,111.032998 -248.0000019,247.999998 0,136.967 111.0330019,248 248.0000019,248 z m 0,-48 c -110.532,0 -200.000002,-89.451 -200.000002,-200 0,-110.532 89.451002,-199.999998 200.000002,-199.999998 110.532,0 200,89.450998 200,199.999998 0,110.532 -89.451,200 -200,200" /><path d="m 150.60904,128.35772 c -4.13056,1.28814 -7.16455,4.93147 -10.12371,7.88572 -6.57637,6.56539 -22.1518,16.85463 -17.70869,27.8402 3.48713,8.62186 14.60206,16.29715 21.08326,22.77835 l 48.93127,48.93127 18.56014,18.56014 c 1.8172,1.8248 5.67434,4.59532 4.88722,7.59278 -2.05849,7.83913 -16.89091,17.90885 -22.60372,23.622 l -49.77491,49.77491 c -6.4812,6.48086 -17.59614,14.15632 -21.08326,22.77835 -1.47531,3.64791 -0.80642,7.77248 1.38655,10.96735 5.92284,8.62793 23.80601,30.70859 35.72592,23.6144 8.86398,-5.27614 16.35249,-15.50109 23.62199,-22.77076 l 48.08763,-48.08762 16.87285,-16.87286 c 1.8248,-1.8172 4.59532,-5.67434 7.59278,-4.88722 7.08407,1.86024 15.94738,14.9291 21.09107,20.07279 l 53.14948,53.14949 c 6.92209,6.92208 18.80311,24.91782 30.37113,20.23982 3.71456,-1.50252 6.51039,-4.82057 9.28007,-7.58519 6.46484,-6.45386 21.35344,-16.27386 18.00924,-26.99656 -2.68869,-8.62203 -14.3124,-16.55058 -20.54016,-22.77835 l -49.77492,-49.77491 -18.56014,-18.56014 c -1.8172,-1.8248 -5.67434,-4.59532 -4.88722,-7.59278 2.05849,-7.83913 16.89057,-17.90885 22.60372,-23.622 l 49.77491,-49.77491 c 6.48086,-6.4812 17.59586,-14.15649 21.08347,-22.77835 1.47469,-3.64766 0.80653,-7.77282 -1.38694,-10.96735 -5.92237,-8.62793 -23.80591,-30.70851 -35.72574,-23.61419 -8.86415,5.27554 -16.35232,15.50096 -23.62199,22.77055 l -48.08763,48.08762 -16.87285,16.87286 c -1.8248,1.8172 -4.59532,5.67434 -7.59278,4.88722 -7.08407,-1.86024 -15.94738,-14.92885 -21.09107,-20.07279 l -53.14948,-53.14949 c -6.83098,-6.83097 -18.21121,-24.0694 -29.52749,-20.54035 z" /></svg>
